<svg width="376" height="518" viewBox="0 0 376 518" fill="none" xmlns="http://www.w3.org/2000/svg">
<path d="M348.5 44.6582C327.7 15.8582 304.167 28.6582 295 38.6582C313 45.0583 325.5 79.3249 329.5 95.6582C344.5 90.6582 369.3 73.4582 348.5 44.6582Z" fill="#74CEDD" stroke="black"/>
<path d="M326.5 56.1582C323.3 48.1582 314.833 50.1582 311 52.1582L323.5 73.6582C325.833 71.1582 329.7 64.1582 326.5 56.1582Z" fill="#050708"/>
<path d="M17.9999 48C38.7999 25.6 62.3333 34.6667 71.4999 42L40.5 99.5C38.8333 100 34.6999 100.7 31.4999 99.5C27.4999 98 -8.00007 76 17.9999 48Z" fill="#74CEDD" stroke="black"/>
<path d="M33.5 62.5C36.7 52.1 48.5 56.5 54 60C52 68.6667 47 85.3 43 82.5C38 79 29.5 75.5 33.5 62.5Z" fill="#050708" stroke="black"/>
<path d="M326 506C337.2 496.8 317.667 477.167 306.5 468.5C295.833 473.167 276.1 483 282.5 485C290.5 487.5 298.5 506 302.5 509C306.093 511.695 310.898 516.408 321.988 509C323.242 508.162 324.577 507.169 326 506Z" fill="#F7D3A2"/>
<path d="M314 492C316.992 496 322.778 505 321.988 509M321.988 509C323.242 508.162 324.577 507.169 326 506C337.2 496.8 317.667 477.167 306.5 468.5C295.833 473.167 276.1 483 282.5 485C290.5 487.5 298.5 506 302.5 509C306.093 511.695 310.898 516.408 321.988 509Z" stroke="black"/>
<path d="M69.0001 511.5C79.4001 500.7 98.0001 493 106 490.5C96.1667 482.833 75.4 467.7 71 468.5C66.6 469.3 52.8334 482.5 46.5001 489C39.3001 501.4 46.1667 509.167 50.5001 511.5C52.3334 516 58.6001 522.3 69.0001 511.5Z" fill="#F7D3A2"/>
<path d="M50.5001 511.5C52.3334 516 58.6001 522.3 69.0001 511.5C79.4001 500.7 98.0001 493 106 490.5C96.1667 482.833 75.4 467.7 71 468.5C66.6 469.3 52.8334 482.5 46.5001 489C39.3001 501.4 46.1667 509.167 50.5001 511.5ZM50.5001 511.5C47.3001 507.599 54.1667 498.541 58 494.5" stroke="black"/>
<path d="M37 280.5C30 286 14.1 295 6.50004 287C5.96622 286.199 5.14743 284.914 4.50004 283.768C4.48837 283.749 4.4774 283.729 4.46713 283.71C3.9179 282.733 3.50004 281.866 3.50004 281.5C3.50004 280.5 -2.49996 276.5 4.50004 268.5C11.5 260.5 32.5 256 38 257.5C42.4 258.7 39.1667 273.333 37 280.5Z" fill="#F7D3A2"/>
<path d="M11 277.5C8.38358 278.845 3.4206 281.983 4.50004 283.768M4.50004 283.768C5.14743 284.914 5.96622 286.199 6.50004 287C14.1 295 30 286 37 280.5C39.1667 273.333 42.4 258.7 38 257.5C32.5 256 11.5 260.5 4.50004 268.5C-2.49996 276.5 3.50004 280.5 3.50004 281.5C3.50004 281.873 3.93469 282.767 4.50004 283.768Z" stroke="black"/>
<path d="M375.5 274.5C372.3 259.3 352.167 255.833 342.5 256V276.5C346.5 280.667 356.4 289.1 364 289.5C371.6 289.9 371.833 283.667 371 280.5C374.6 279.7 375.5 276.167 375.5 274.5Z" fill="#F7D3A2"/>
<path d="M371 280.5C374.6 279.7 375.5 276.167 375.5 274.5C372.3 259.3 352.167 255.833 342.5 256V276.5C346.5 280.667 356.4 289.1 364 289.5C371.6 289.9 371.833 283.667 371 280.5ZM371 280.5C369.4 281.199 366.667 277.791 365.5 276" stroke="black"/>
<path d="M68.4999 472C22.8999 449.6 27.8332 338.667 35.9999 286C37.5292 274.8 32.9704 205.667 30.4998 172.5C26.0997 91.2999 52.3333 53.5001 68.5 44.0001C158.5 -25.9997 262 4.50001 300 36C341 62.5 347.166 211.667 344 286C361.2 416.8 310.166 474.833 282.5 487.5C179.7 527.5 96.9998 493.833 68.4999 472Z" fill="#74CEDD" stroke="black"/>
<path d="M162 175V159.5L172 149.5L183.5 151L196 147L205.5 159.5C205.667 165 205.9 176.7 205.5 179.5C205 183 200 184 194.5 186C190.1 187.6 185.333 181.667 183.5 178.5C184 181 179.5 184 172 186C166 187.6 162.833 179.333 162 175Z" fill="white"/>
<path d="M183.5 178.5C184 181 179.5 184 172 186C166 187.6 162.833 179.333 162 175V159.5L172 149.5L183.5 151M183.5 178.5C183.1 176.5 183.333 159.333 183.5 151M183.5 178.5C185.333 181.667 190.1 187.6 194.5 186C200 184 205 183 205.5 179.5C205.9 176.7 205.667 165 205.5 159.5L196 147L183.5 151" stroke="black"/>
<path d="M160.5 159C135.3 144.2 153.667 130.5 166 125.5L202.5 123L215.5 130.5C231.5 142 223.5 152 222 154.5C220.5 157 213 159 206.5 159C200 159 195.5 152.5 193 151C190.5 149.5 176 150 172.5 153.5C168.956 157.044 164.167 159.333 160.5 159Z" fill="#F7D3A2" stroke="black"/>
<path d="M185 109C169 107.8 164.667 119.167 164.5 125C164.341 126.6 166.434 129.667 167.5 131C182 137 187.5 134.5 190 134C192.5 133.5 200.5 132 205 127C208.6 123 206.5 118.667 205 117C196.6 109.8 188.167 108.667 185 109Z" fill="black" stroke="black"/>
<path d="M84.5 79C100.833 90.5 139.8 106.6 165 79" stroke="black" stroke-width="4"/>
<path d="M206 79C218.833 91.8333 252.5 109.8 284.5 79" stroke="black" stroke-width="4"/>
</svg>
